<svg width="543" height="119" viewBox="0 0 543 119" fill="none" xmlns="http://www.w3.org/2000/svg">
<path d="M185.757 98.0013C180.846 98.0013 176.789 96.2932 173.587 93.0905C170.384 89.8878 168.676 85.6175 168.676 80.7067C168.676 75.7959 170.384 71.7391 173.587 68.3229C176.789 65.1202 180.846 63.4121 185.757 63.4121C190.668 63.4121 194.724 65.1202 197.927 68.7499L194.938 71.5256C192.589 68.7499 189.6 67.2553 185.757 67.2553C182.127 67.2553 179.138 68.5364 176.576 70.8851C174.014 73.2337 172.946 76.4364 172.946 80.4932C172.946 84.3364 174.227 87.5391 176.576 90.1013C179.138 92.4499 182.127 93.731 185.757 93.731C189.814 93.731 193.016 92.0229 196.006 89.0337L198.995 92.0229C197.5 93.731 195.578 95.2256 193.23 96.2932C190.881 97.3608 188.533 98.0013 185.757 98.0013Z" fill="#606469"/>
<path d="M206.891 64.2666V74.7287L206.678 77.9315H206.891C207.532 76.8639 208.386 76.0098 209.881 75.1558C211.162 74.3017 212.656 74.0882 214.151 74.0882C216.927 74.0882 219.062 74.9423 220.556 76.6504C222.051 78.3585 222.691 80.7071 222.691 83.4828V97.3612H218.421V84.1233C218.421 79.8531 216.499 77.9315 212.87 77.9315C211.162 77.9315 209.667 78.572 208.599 80.0666C207.532 81.5612 206.891 83.0558 206.891 84.9774V97.3612H202.621V64.4801L206.891 64.2666Z" fill="#606469"/>
<path d="M231.88 97.148H227.609V74.5155H231.666V78.1453H231.88C232.307 76.8642 233.161 75.7966 234.442 75.1561C235.723 74.302 237.004 73.875 238.285 73.875C239.566 73.875 240.634 74.0885 241.488 74.5155L239.78 78.5723C239.139 78.3588 238.499 78.1453 237.431 78.1453C235.936 78.1453 234.442 78.7858 233.374 80.0669C232.093 81.348 231.666 82.8426 231.666 84.7642V97.148H231.88Z" fill="#606469"/>
<path d="M244.898 77.2912C247.033 74.9426 249.809 73.875 253.225 73.875C256.641 73.875 259.417 74.9426 261.552 77.2912C263.687 79.6399 264.755 82.4155 264.755 85.8318C264.755 89.248 263.687 92.2372 261.552 94.3723C259.417 96.7209 256.641 97.7885 253.225 97.7885C249.809 97.7885 247.033 96.7209 244.898 94.3723C242.763 92.0236 241.695 89.248 241.695 85.8318C241.695 82.4155 242.763 79.6399 244.898 77.2912ZM248.101 91.8101C249.595 93.3047 251.303 93.9453 253.225 93.9453C255.147 93.9453 256.855 93.0912 258.349 91.8101C259.844 90.3155 260.485 88.3939 260.485 85.8318C260.485 83.2696 259.844 81.348 258.349 79.8534C256.855 78.3588 255.147 77.7182 253.225 77.7182C251.303 77.7182 249.595 78.5723 248.101 79.8534C246.606 81.348 245.966 83.2696 245.966 85.8318C245.966 88.3939 246.606 90.3155 248.101 91.8101Z" fill="#606469"/>
<path d="M268.387 97.148V74.5155H272.443V77.7182H272.657C273.298 76.6507 274.365 75.7966 275.646 74.9426C276.927 74.0885 278.208 73.875 279.703 73.875C283.119 73.875 285.681 75.3696 286.749 78.1453C288.671 75.3696 291.233 73.875 294.649 73.875C297.425 73.875 299.346 74.729 300.627 76.4372C301.908 78.1453 302.762 80.4939 302.762 83.2696V97.148H298.492V83.9101C298.492 81.5615 298.065 80.0669 297.211 78.9993C296.357 78.1453 295.076 77.5047 293.368 77.5047C291.66 77.5047 290.379 78.1453 289.311 79.6399C288.243 81.1345 287.603 82.6291 287.603 84.5507V96.9345H283.333V83.6966C283.333 81.348 282.906 79.8534 282.052 78.7858C281.198 77.9317 279.916 77.2912 278.208 77.2912C276.5 77.2912 275.219 77.9318 274.152 79.4263C273.084 80.9209 272.443 82.4155 272.443 84.3371V96.7209L268.387 97.148Z" fill="#606469"/>
<path d="M317.706 98.002C314.289 98.002 311.514 96.9345 309.378 94.5858C307.243 92.2372 306.176 89.4615 306.176 86.0453C306.176 82.8426 307.243 79.8534 309.378 77.5047C311.514 75.1561 314.076 73.875 317.279 73.875C320.695 73.875 323.257 74.9426 325.392 77.0777C327.314 79.2128 328.381 82.202 328.381 85.8318V86.6858H310.446C310.66 89.0345 311.3 90.7426 312.795 92.0236C314.289 93.3047 315.784 93.9453 317.706 93.9453C320.695 93.9453 322.83 92.6642 323.897 90.102L327.741 91.5966C327.1 93.3047 325.819 94.7993 324.111 96.0804C322.403 97.3615 320.268 98.002 317.706 98.002ZM323.897 83.2696C323.897 81.9885 323.257 80.7074 322.189 79.6399C321.122 78.3588 319.414 77.9317 317.279 77.9317C315.784 77.9317 314.289 78.3588 313.222 79.4263C312.154 80.4939 311.3 81.775 310.873 83.4831H323.897V83.2696Z" fill="#606469"/>
<path d="M379.625 64.2666L370.871 97.1477H366.601L359.555 75.3693H359.341L352.295 97.1477H348.025L338.844 64.2666H343.328L350.373 90.3152H350.587L357.633 68.7504H361.69L368.736 90.3152H368.949L375.568 64.2666H379.625Z" fill="#606469"/>
<path d="M390.733 98.002C387.317 98.002 384.541 96.9345 382.406 94.5858C380.271 92.2372 379.203 89.4615 379.203 86.0453C379.203 82.8426 380.271 79.8534 382.406 77.5047C384.541 75.1561 387.103 73.875 390.306 73.875C393.722 73.875 396.284 74.9426 398.419 77.0777C400.341 79.2128 401.409 82.202 401.409 85.8318V86.6858H383.473C383.687 89.0345 384.327 90.7426 385.822 92.0236C387.317 93.3047 388.811 93.9453 390.733 93.9453C393.722 93.9453 395.857 92.6642 396.925 90.102L400.768 91.5966C400.127 93.3047 398.846 94.7993 397.138 96.0804C395.217 97.3615 393.081 98.002 390.733 98.002ZM396.711 83.2696C396.711 81.9885 396.071 80.7074 395.003 79.6399C393.936 78.3588 392.227 77.9317 390.092 77.9317C388.598 77.9317 387.103 78.3588 386.036 79.4263C384.968 80.4939 384.114 81.775 383.687 83.4831H396.711V83.2696Z" fill="#606469"/>
<path d="M416.992 98.0011C415.284 98.0011 413.789 97.5741 412.295 96.9335C411.014 96.293 409.946 95.2254 409.305 94.1579H409.092V97.3606H405.035V64.4795H409.305V74.9417L409.092 78.1444H409.305C409.946 77.0768 411.014 76.0092 412.295 75.3687C413.576 74.7281 415.284 74.3011 416.992 74.3011C419.981 74.3011 422.33 75.3687 424.465 77.7173C426.6 80.066 427.668 82.8416 427.668 86.2579C427.668 89.6741 426.6 92.4498 424.465 94.7984C422.543 96.72 419.981 98.0011 416.992 98.0011ZM416.351 94.1579C418.273 94.1579 419.981 93.3038 421.476 92.0227C422.97 90.5281 423.611 88.6065 423.611 86.0444C423.611 83.4822 422.97 81.5606 421.476 80.066C419.981 78.5714 418.273 77.9308 416.351 77.9308C414.43 77.9308 412.722 78.5714 411.227 80.066C409.732 81.5606 409.092 83.4822 409.092 86.0444C409.092 88.6065 409.732 90.5281 411.227 92.0227C412.722 93.3038 414.43 94.1579 416.351 94.1579Z" fill="#606469"/>
<path d="M450.518 98.0007C448.169 98.0007 445.821 97.1466 443.472 95.652C441.123 94.1574 439.629 91.8088 438.988 89.0331L442.831 87.5385C443.259 89.2466 444.326 90.9547 445.607 92.0223C446.888 93.0899 448.596 93.9439 450.518 93.9439C452.44 93.9439 453.934 93.5169 455.215 92.4493C456.496 91.3818 457.137 90.1007 457.137 88.6061C457.137 86.6845 456.496 85.4034 455.215 84.3358C453.934 83.2682 451.799 82.4142 449.023 81.5601C446.034 80.7061 443.899 79.425 442.404 77.9304C440.91 76.4358 440.056 74.5142 440.056 72.3791C440.056 70.0304 440.91 67.8953 442.831 66.1872C444.753 64.479 447.102 63.625 450.091 63.625C452.867 63.625 455.215 64.2655 456.923 65.7601C458.632 67.2547 459.699 68.7493 460.34 70.2439L456.496 71.952C456.283 70.8845 455.642 70.0304 454.361 68.9628C453.294 68.1088 451.799 67.6818 450.091 67.6818C448.383 67.6818 447.102 68.1088 446.034 68.9628C444.967 69.8169 444.326 71.098 444.326 72.3791C444.326 73.6601 444.753 74.7277 445.821 75.5818C446.888 76.4358 448.383 77.2899 450.518 77.9304C452.226 78.3574 453.507 78.998 454.575 79.425C455.642 79.852 456.71 80.4926 457.777 81.3466C458.845 82.2007 459.699 83.2682 460.34 84.3358C460.98 85.6169 461.194 86.898 461.194 88.6061C461.194 90.3142 460.767 91.5953 460.126 92.8763C459.486 94.1574 458.631 95.225 457.564 95.8655C456.496 96.5061 455.215 97.1466 453.934 97.5737C453.08 97.7872 451.799 98.0007 450.518 98.0007Z" fill="#606469"/>
<path d="M474.64 97.5729C472.292 97.5729 470.584 96.9324 469.303 95.6513C468.021 94.3702 467.381 92.6621 467.381 90.3135V78.5702H463.324V74.727H467.381V67.8945H471.651V74.727H477.203V78.5702H471.651V90.0999C471.651 92.4486 472.719 93.7297 474.64 93.7297C475.494 93.7297 476.135 93.5162 476.562 93.3026L478.057 96.9324C476.989 97.3594 475.921 97.5729 474.64 97.5729Z" fill="#606469"/>
<path d="M482.757 77.2912C484.893 74.9426 487.668 73.875 491.084 73.875C494.501 73.875 497.276 74.9426 499.411 77.2912C501.547 79.6399 502.614 82.4155 502.614 85.8318C502.614 89.248 501.547 92.2372 499.411 94.3723C497.276 96.7209 494.501 97.7885 491.084 97.7885C487.668 97.7885 484.893 96.7209 482.757 94.3723C480.622 92.0236 479.555 89.248 479.555 85.8318C479.555 82.4155 480.622 79.6399 482.757 77.2912ZM485.96 91.8101C487.455 93.3047 489.163 93.9453 491.084 93.9453C493.006 93.9453 494.714 93.0912 496.209 91.8101C497.703 90.3155 498.344 88.3939 498.344 85.8318C498.344 83.2696 497.703 81.348 496.209 79.8534C494.714 78.3588 493.006 77.7182 491.084 77.7182C489.163 77.7182 487.455 78.5723 485.96 79.8534C484.465 81.348 483.825 83.2696 483.825 85.8318C483.825 88.3939 484.465 90.3155 485.96 91.8101Z" fill="#606469"/>
<path d="M510.512 97.148H506.242V74.5155H510.299V78.1453H510.512C510.939 76.8642 511.793 75.7966 513.075 75.1561C514.356 74.302 515.637 73.875 516.918 73.875C518.199 73.875 519.267 74.0885 520.121 74.5155L518.412 78.5723C517.772 78.3588 517.131 78.1453 516.064 78.1453C514.569 78.1453 513.075 78.7858 512.007 80.0669C510.726 81.348 510.299 82.8426 510.299 84.7642V97.148H510.512Z" fill="#606469"/>
<path d="M531.651 98.002C528.235 98.002 525.459 96.9345 523.324 94.5858C521.189 92.2372 520.121 89.4615 520.121 86.0453C520.121 82.8426 521.189 79.8534 523.324 77.5047C525.459 75.1561 528.021 73.875 531.224 73.875C534.64 73.875 537.202 74.9426 539.337 77.0777C541.259 79.2128 542.326 82.202 542.326 85.8318V86.6858H524.391C524.605 89.0345 525.245 90.7426 526.74 92.0236C528.235 93.3047 529.729 93.9453 531.651 93.9453C534.64 93.9453 536.775 92.6642 537.843 90.102L541.686 91.5966C541.045 93.3047 539.764 94.7993 538.056 96.0804C536.348 97.3615 534.213 98.002 531.651 98.002ZM537.843 83.2696C537.843 81.9885 537.202 80.7074 536.135 79.6399C535.067 78.3588 533.359 77.9317 531.224 77.9317C529.729 77.9317 528.235 78.3588 527.167 79.4263C526.099 80.4939 525.245 81.775 524.818 83.4831H537.843V83.2696Z" fill="#606469"/>
<path d="M171.027 45.9049L180.422 20.9238H184.052L193.446 45.9049H190.03L187.681 39.0725H177.219L174.871 45.9049H171.027ZM178.287 36.2968H186.614L182.557 24.9806H182.344L178.287 36.2968Z" fill="#606469"/>
<path d="M199.211 45.9053L192.379 28.8242H195.795L200.706 42.0621L205.83 28.8242H209.246L202.201 45.9053H199.211Z" fill="#606469"/>
<path d="M216.507 46.5445C214.799 46.5445 213.091 46.1175 212.023 45.0499C210.742 43.9824 210.102 42.7013 210.102 40.9932C210.102 39.0715 210.742 37.7905 212.237 36.5094C213.731 35.4418 215.439 35.0148 217.575 35.0148C219.496 35.0148 220.991 35.4418 222.272 36.0823V35.6553C222.272 34.3742 221.845 33.3067 220.991 32.6661C220.137 31.8121 219.069 31.5986 217.788 31.5986C216.934 31.5986 216.08 31.8121 215.226 32.2391C214.372 32.6661 213.945 33.3067 213.731 33.9472L210.742 32.6661C211.169 31.5986 212.023 30.7445 213.091 29.8905C214.158 29.0364 215.866 28.6094 217.788 28.6094C219.923 28.6094 221.845 29.2499 223.126 30.531C224.62 31.8121 225.261 33.5202 225.261 35.8688V46.1175H222.272V43.7688H222.058C220.991 45.4769 219.069 46.5445 216.507 46.5445ZM217.148 43.5553C218.429 43.5553 219.71 43.1283 220.777 42.0607C221.845 40.9932 222.485 39.9256 222.485 38.6445C221.631 37.7905 220.137 37.577 218.429 37.577C216.934 37.577 215.653 38.004 214.799 38.6445C213.945 39.2851 213.518 40.1391 213.518 40.9932C213.518 41.8472 213.945 42.4878 214.585 42.9148C215.439 43.3418 216.293 43.5553 217.148 43.5553Z" fill="#606469"/>
<path d="M232.518 24.5528C232.091 24.9799 231.45 25.1934 230.81 25.1934C230.169 25.1934 229.742 24.9799 229.101 24.5528C228.674 24.1258 228.461 23.4853 228.461 22.8447C228.461 22.2042 228.674 21.7772 229.101 21.1366C229.529 20.7096 230.169 20.4961 230.81 20.4961C231.45 20.4961 231.877 20.7096 232.518 21.1366C232.945 21.5637 233.158 22.2042 233.158 22.8447C233.158 23.4853 232.945 24.1258 232.518 24.5528ZM232.518 45.9042H229.315V28.8231H232.518V45.9042Z" fill="#606469"/>
<path d="M239.996 45.9043H236.793V21.1367H239.996V45.9043Z" fill="#606469"/>
<path d="M248.96 46.5445C247.252 46.5445 245.544 46.1175 244.476 45.0499C243.195 43.9824 242.555 42.7013 242.555 40.9932C242.555 39.0715 243.195 37.7905 244.69 36.5094C246.184 35.4418 247.893 35.0148 250.028 35.0148C251.949 35.0148 253.444 35.4418 254.725 36.0823V35.6553C254.725 34.3742 254.298 33.3067 253.444 32.6661C252.59 31.8121 251.522 31.5986 250.241 31.5986C249.387 31.5986 248.533 31.8121 247.679 32.2391C246.825 32.6661 246.398 33.3067 246.184 33.9472L243.195 32.6661C243.622 31.5986 244.476 30.7445 245.544 29.8905C246.611 29.0364 248.32 28.6094 250.241 28.6094C252.376 28.6094 254.298 29.2499 255.579 30.531C257.074 31.8121 257.714 33.5202 257.714 35.8688V46.1175H254.725V43.7688H254.511C253.444 45.4769 251.522 46.5445 248.96 46.5445ZM249.601 43.5553C250.882 43.5553 252.163 43.1283 253.23 42.0607C254.298 40.9932 254.938 39.9256 254.938 38.6445C254.084 37.7905 252.59 37.577 250.882 37.577C249.387 37.577 248.106 38.004 247.252 38.6445C246.398 39.2851 245.971 40.1391 245.971 40.9932C245.971 41.8472 246.398 42.4878 247.038 42.9148C247.893 43.3418 248.747 43.5553 249.601 43.5553Z" fill="#606469"/>
<path d="M270.522 46.5448C269.241 46.5448 267.96 46.3313 267.106 45.6908C266.038 45.0502 265.398 44.4097 264.757 43.5556H264.544V45.9043H261.555V21.1367H264.757V29.0367L264.544 31.3854H264.757C265.184 30.5313 266.038 29.8908 267.106 29.2502C268.174 28.6097 269.241 28.3962 270.522 28.3962C272.657 28.3962 274.579 29.2502 276.287 30.9583C277.995 32.6664 278.636 34.8016 278.636 37.3637C278.636 39.9259 277.782 42.061 276.287 43.7691C274.579 45.6908 272.657 46.5448 270.522 46.5448ZM270.095 43.5556C271.59 43.5556 272.871 42.9151 273.938 41.8475C275.006 40.78 275.647 39.2854 275.647 37.3637C275.647 35.4421 275.22 33.9475 273.938 32.88C272.871 31.8124 271.59 31.1719 270.095 31.1719C268.601 31.1719 267.32 31.8124 266.252 32.88C265.184 33.9475 264.757 35.4421 264.757 37.3637C264.757 39.2854 265.184 40.78 266.252 41.8475C267.106 43.1286 268.387 43.5556 270.095 43.5556Z" fill="#606469"/>
<path d="M284.617 45.9043H281.414V21.1367H284.617V45.9043Z" fill="#606469"/>
<path d="M296.15 46.5438C293.588 46.5438 291.453 45.6898 289.958 43.9816C288.25 42.2735 287.609 40.1384 287.609 37.3627C287.609 34.8005 288.463 32.6654 289.958 30.9573C291.453 29.2492 293.588 28.1816 295.936 28.1816C298.499 28.1816 300.42 29.0357 302.128 30.7438C303.623 32.4519 304.477 34.587 304.477 37.3627V38.0033H291.026C291.026 39.7114 291.666 40.9925 292.734 42.06C293.801 43.1276 295.082 43.5546 296.363 43.5546C298.712 43.5546 300.207 42.487 301.061 40.5654L303.836 41.8465C303.196 43.1276 302.342 44.1952 301.061 45.2627C299.566 46.1168 297.858 46.5438 296.15 46.5438ZM300.634 35.4411C300.634 34.3735 300.207 33.5195 299.353 32.6654C298.499 31.8114 297.217 31.3843 295.723 31.3843C294.442 31.3843 293.588 31.8114 292.734 32.4519C291.88 33.306 291.239 34.16 291.026 35.4411H300.634Z" fill="#606469"/>
<path d="M318.139 24.5528C317.712 24.9799 317.071 25.1934 316.431 25.1934C315.79 25.1934 315.363 24.9799 314.723 24.5528C314.296 24.1258 314.082 23.4853 314.082 22.8447C314.082 22.2042 314.296 21.7772 314.723 21.1366C315.15 20.7096 315.79 20.4961 316.431 20.4961C317.071 20.4961 317.498 20.7096 318.139 21.1366C318.566 21.5637 318.779 22.2042 318.779 22.8447C318.779 23.4853 318.566 24.1258 318.139 24.5528ZM318.139 45.9042H314.936V28.8231H318.139V45.9042Z" fill="#606469"/>
<path d="M325.395 28.8222V31.1708H325.609C326.036 30.3168 326.89 29.6762 327.744 29.0357C328.812 28.3952 329.879 28.1816 330.947 28.1816C333.082 28.1816 334.577 28.8222 335.858 30.1033C336.925 31.3843 337.566 33.0925 337.566 35.4411V45.9033H334.363V35.8681C334.363 32.6654 332.868 31.1708 330.093 31.1708C328.812 31.1708 327.744 31.5979 326.89 32.6654C326.036 33.733 325.609 35.0141 325.609 36.2951V45.6897H322.406V28.6087L325.395 28.8222Z" fill="#606469"/>
<path d="M356.361 46.3323C354.653 46.3323 353.158 45.9052 352.304 44.8377C351.45 43.9836 350.81 42.489 350.81 40.7809V31.8134H347.82V28.8242H350.81V23.4863H354.012V28.8242H358.282V31.8134H354.012V40.5674C354.012 42.489 354.866 43.3431 356.361 43.3431C357.001 43.3431 357.428 43.3431 357.855 43.1296L358.923 45.9052C358.283 46.1188 357.428 46.3323 356.361 46.3323Z" fill="#606469"/>
<path d="M364.683 21.1367V29.0367L364.47 31.3854H364.683C365.11 30.5313 365.964 29.8908 366.818 29.2502C367.886 28.6097 368.953 28.3962 370.021 28.3962C372.156 28.3962 373.651 29.0367 374.932 30.3178C375.999 31.5989 376.64 33.307 376.64 35.6556V46.1178H373.437V36.0827C373.437 32.88 371.943 31.3854 369.167 31.3854C367.886 31.3854 366.818 31.8124 365.964 32.88C365.11 33.9475 364.683 35.2286 364.683 36.5097V45.9043H361.48V21.1367H364.683Z" fill="#606469"/>
<path d="M388.169 46.5438C385.607 46.5438 383.472 45.6898 381.978 43.9816C380.269 42.2735 379.629 40.1384 379.629 37.3627C379.629 34.8005 380.483 32.6654 381.978 30.9573C383.472 29.2492 385.607 28.1816 387.956 28.1816C390.518 28.1816 392.44 29.0357 394.148 30.7438C395.642 32.4519 396.496 34.587 396.496 37.3627V38.0033H383.045C383.045 39.7114 383.686 40.9925 384.753 42.06C385.821 43.1276 387.102 43.5546 388.383 43.5546C390.732 43.5546 392.226 42.487 393.08 40.5654L395.856 41.8465C395.215 43.1276 394.361 44.1952 393.08 45.2627C391.586 46.1168 389.878 46.5438 388.169 46.5438ZM392.653 35.4411C392.653 34.3735 392.226 33.5195 391.372 32.6654C390.518 31.8114 389.237 31.3843 387.742 31.3843C386.461 31.3843 385.607 31.8114 384.753 32.4519C383.899 33.306 383.259 34.16 383.045 35.4411H392.653Z" fill="#606469"/>
<mask id="mask0_626_40" style="mask-type:luminance" maskUnits="userSpaceOnUse" x="0" y="0" width="138" height="119">
<path d="M0 0V109.105C0 114.23 4.27027 118.5 9.3946 118.5H127.895C133.019 118.5 137.289 114.23 137.289 109.105V0H0ZM84.1243 24.9811H52.9514C49.5351 24.9811 46.7595 22.2054 46.7595 18.7892C46.7595 15.373 49.5351 12.5973 52.9514 12.5973H84.1243C87.5405 12.5973 90.3162 15.373 90.3162 18.7892C90.3162 22.2054 87.5405 24.9811 84.1243 24.9811Z" fill="white"/>
</mask>
<g mask="url(#mask0_626_40)">
<path d="M0 0H137.289V118.5H0V0Z" fill="#EEEDEE"/>
</g>
<mask id="mask1_626_40" style="mask-type:luminance" maskUnits="userSpaceOnUse" x="0" y="0" width="138" height="119">
<path d="M0 0V109.105C0 114.23 4.27027 118.5 9.3946 118.5H127.895C133.019 118.5 137.289 114.23 137.289 109.105V0H0ZM84.1243 24.9811H52.9514C49.5351 24.9811 46.7595 22.2054 46.7595 18.7892C46.7595 15.373 49.5351 12.5973 52.9514 12.5973H84.1243C87.5405 12.5973 90.3162 15.373 90.3162 18.7892C90.3162 22.2054 87.5405 24.9811 84.1243 24.9811Z" fill="white"/>
</mask>
<g mask="url(#mask1_626_40)">
<path d="M84.1227 12.5977H52.9497C49.5335 12.5977 46.7578 15.3733 46.7578 18.7896C46.7578 22.2058 49.5335 24.9814 52.9497 24.9814H84.1227C87.5389 24.9814 90.3146 22.2058 90.3146 18.7896C90.3146 15.3733 87.5389 12.5977 84.1227 12.5977Z" fill="white"/>
</g>
<mask id="mask2_626_40" style="mask-type:luminance" maskUnits="userSpaceOnUse" x="0" y="0" width="138" height="119">
<path d="M0 0V109.105C0 114.23 4.27027 118.5 9.3946 118.5H127.895C133.019 118.5 137.289 114.23 137.289 109.105V0H0ZM84.1243 24.9811H52.9514C49.5351 24.9811 46.7595 22.2054 46.7595 18.7892C46.7595 15.373 49.5351 12.5973 52.9514 12.5973H84.1243C87.5405 12.5973 90.3162 15.373 90.3162 18.7892C90.3162 22.2054 87.5405 24.9811 84.1243 24.9811Z" fill="white"/>
</mask>
<g mask="url(#mask2_626_40)">
<mask id="mask3_626_40" style="mask-type:luminance" maskUnits="userSpaceOnUse" x="9" y="49" width="120" height="120">
<mask id="mask4_626_40" style="mask-type:luminance" maskUnits="userSpaceOnUse" x="9" y="49" width="120" height="120">
<mask id="mask5_626_40" style="mask-type:luminance" maskUnits="userSpaceOnUse" x="9" y="49" width="120" height="120">
<mask id="mask6_626_40" style="mask-type:luminance" maskUnits="userSpaceOnUse" x="9" y="49" width="120" height="120">
<path d="M127.861 113.507C130.185 80.8074 105.56 52.4155 72.8611 50.0916C40.1617 47.7678 11.7698 72.392 9.44596 105.091C7.12212 137.791 31.7463 166.183 64.4457 168.507C97.1451 170.83 125.537 146.206 127.861 113.507Z" fill="white"/>
</mask>
<g mask="url(#mask6_626_40)">
<path d="M127.861 113.507C130.185 80.8074 105.56 52.4155 72.8611 50.0916C40.1617 47.7678 11.7698 72.392 9.44596 105.091C7.12212 137.791 31.7463 166.183 64.4457 168.507C97.1451 170.83 125.537 146.206 127.861 113.507Z" fill="white"/>
</g>
</mask>
<g mask="url(#mask5_626_40)">
<path d="M127.861 113.507C130.185 80.8074 105.56 52.4155 72.8611 50.0916C40.1617 47.7678 11.7698 72.392 9.44596 105.091C7.12212 137.791 31.7463 166.183 64.4457 168.507C97.1451 170.83 125.537 146.206 127.861 113.507Z" fill="white"/>
</g>
</mask>
<g mask="url(#mask4_626_40)">
<path d="M127.861 113.507C130.185 80.8074 105.56 52.4155 72.8611 50.0916C40.1617 47.7678 11.7698 72.392 9.44596 105.091C7.12212 137.791 31.7463 166.183 64.4457 168.507C97.1451 170.83 125.537 146.206 127.861 113.507Z" fill="white"/>
</g>
</mask>
<g mask="url(#mask3_626_40)">
<path d="M18.7891 49.9629V122.771H45.2647L68.5377 82.417H127.894V50.1764H18.7891V49.9629ZM18.7891 49.9629V122.771H45.2647L68.5377 82.417H127.894V50.1764H18.7891V49.9629Z" fill="#DC4637"/>
</g>
<mask id="mask7_626_40" style="mask-type:luminance" maskUnits="userSpaceOnUse" x="9" y="49" width="120" height="120">
<mask id="mask8_626_40" style="mask-type:luminance" maskUnits="userSpaceOnUse" x="9" y="49" width="120" height="120">
<mask id="mask9_626_40" style="mask-type:luminance" maskUnits="userSpaceOnUse" x="9" y="49" width="120" height="120">
<mask id="mask10_626_40" style="mask-type:luminance" maskUnits="userSpaceOnUse" x="9" y="49" width="120" height="120">
<path d="M127.861 113.507C130.185 80.8074 105.56 52.4155 72.8611 50.0916C40.1617 47.7678 11.7698 72.392 9.44596 105.091C7.12212 137.791 31.7463 166.183 64.4457 168.507C97.1451 170.83 125.537 146.206 127.861 113.507Z" fill="white"/>
</mask>
<g mask="url(#mask10_626_40)">
<path d="M127.861 113.507C130.185 80.8074 105.56 52.4155 72.8611 50.0916C40.1617 47.7678 11.7698 72.392 9.44596 105.091C7.12212 137.791 31.7463 166.183 64.4457 168.507C97.1451 170.83 125.537 146.206 127.861 113.507Z" fill="white"/>
</g>
</mask>
<g mask="url(#mask9_626_40)">
<path d="M127.861 113.507C130.185 80.8074 105.56 52.4155 72.8611 50.0916C40.1617 47.7678 11.7698 72.392 9.44596 105.091C7.12212 137.791 31.7463 166.183 64.4457 168.507C97.1451 170.83 125.537 146.206 127.861 113.507Z" fill="white"/>
</g>
</mask>
<g mask="url(#mask8_626_40)">
<path d="M127.861 113.507C130.185 80.8074 105.56 52.4155 72.8611 50.0916C40.1617 47.7678 11.7698 72.392 9.44596 105.091C7.12212 137.791 31.7463 166.183 64.4457 168.507C97.1451 170.83 125.537 146.206 127.861 113.507Z" fill="white"/>
</g>
</mask>
<g mask="url(#mask7_626_40)">
<path d="M9.39844 168.464H65.766L91.8147 142.415V122.772H45.2687L9.39844 61.0664C9.39844 61.0664 9.39844 168.464 9.39844 168.464ZM9.39844 168.464H65.766L91.8147 142.415V122.772H45.2687L9.39844 61.0664C9.39844 61.0664 9.39844 168.464 9.39844 168.464Z" fill="#0F9D58"/>
</g>
<mask id="mask11_626_40" style="mask-type:luminance" maskUnits="userSpaceOnUse" x="9" y="49" width="120" height="120">
<mask id="mask12_626_40" style="mask-type:luminance" maskUnits="userSpaceOnUse" x="9" y="49" width="120" height="120">
<mask id="mask13_626_40" style="mask-type:luminance" maskUnits="userSpaceOnUse" x="9" y="49" width="120" height="120">
<mask id="mask14_626_40" style="mask-type:luminance" maskUnits="userSpaceOnUse" x="9" y="49" width="120" height="120">
<path d="M127.861 113.507C130.185 80.8074 105.56 52.4155 72.8611 50.0916C40.1617 47.7678 11.7698 72.392 9.44596 105.091C7.12212 137.791 31.7463 166.183 64.4457 168.507C97.1451 170.83 125.537 146.206 127.861 113.507Z" fill="white"/>
</mask>
<g mask="url(#mask14_626_40)">
<path d="M127.861 113.507C130.185 80.8074 105.56 52.4155 72.8611 50.0916C40.1617 47.7678 11.7698 72.392 9.44596 105.091C7.12212 137.791 31.7463 166.183 64.4457 168.507C97.1451 170.83 125.537 146.206 127.861 113.507Z" fill="white"/>
</g>
</mask>
<g mask="url(#mask13_626_40)">
<path d="M127.861 113.507C130.185 80.8074 105.56 52.4155 72.8611 50.0916C40.1617 47.7678 11.7698 72.392 9.44596 105.091C7.12212 137.791 31.7463 166.183 64.4457 168.507C97.1451 170.83 125.537 146.206 127.861 113.507Z" fill="white"/>
</g>
</mask>
<g mask="url(#mask12_626_40)">
<path d="M127.861 113.507C130.185 80.8074 105.56 52.4155 72.8611 50.0916C40.1617 47.7678 11.7698 72.392 9.44596 105.091C7.12212 137.791 31.7463 166.183 64.4457 168.507C97.1451 170.83 125.537 146.206 127.861 113.507Z" fill="white"/>
</g>
</mask>
<g mask="url(#mask11_626_40)">
<path d="M68.5361 82.4186L91.809 122.773L65.5469 168.465H127.679V82.2051H68.5361V82.4186ZM68.5361 82.4186L91.809 122.773L65.5469 168.465H127.679V82.2051H68.5361V82.4186Z" fill="#FFCE41"/>
</g>
<mask id="mask15_626_40" style="mask-type:luminance" maskUnits="userSpaceOnUse" x="9" y="49" width="120" height="120">
<mask id="mask16_626_40" style="mask-type:luminance" maskUnits="userSpaceOnUse" x="9" y="49" width="120" height="120">
<mask id="mask17_626_40" style="mask-type:luminance" maskUnits="userSpaceOnUse" x="9" y="49" width="120" height="120">
<mask id="mask18_626_40" style="mask-type:luminance" maskUnits="userSpaceOnUse" x="9" y="49" width="120" height="120">
<path d="M127.861 113.507C130.185 80.8074 105.56 52.4155 72.8611 50.0916C40.1617 47.7678 11.7698 72.392 9.44596 105.091C7.12212 137.791 31.7463 166.183 64.4457 168.507C97.1451 170.83 125.537 146.206 127.861 113.507Z" fill="white"/>
</mask>
<g mask="url(#mask18_626_40)">
<path d="M127.861 113.507C130.185 80.8074 105.56 52.4155 72.8611 50.0916C40.1617 47.7678 11.7698 72.392 9.44596 105.091C7.12212 137.791 31.7463 166.183 64.4457 168.507C97.1451 170.83 125.537 146.206 127.861 113.507Z" fill="white"/>
</g>
</mask>
<g mask="url(#mask17_626_40)">
<path d="M127.861 113.507C130.185 80.8074 105.56 52.4155 72.8611 50.0916C40.1617 47.7678 11.7698 72.392 9.44596 105.091C7.12212 137.791 31.7463 166.183 64.4457 168.507C97.1451 170.83 125.537 146.206 127.861 113.507Z" fill="white"/>
</g>
</mask>
<g mask="url(#mask16_626_40)">
<path d="M127.861 113.507C130.185 80.8074 105.56 52.4155 72.8611 50.0916C40.1617 47.7678 11.7698 72.392 9.44596 105.091C7.12212 137.791 31.7463 166.183 64.4457 168.507C97.1451 170.83 125.537 146.206 127.861 113.507Z" fill="white"/>
</g>
</mask>
<g mask="url(#mask15_626_40)">
<path d="M68.5394 136.222C83.3974 136.222 95.4421 124.178 95.4421 109.32C95.4421 94.4617 83.3974 82.417 68.5394 82.417C53.6815 82.417 41.6367 94.4617 41.6367 109.32C41.6367 124.178 53.6815 136.222 68.5394 136.222Z" fill="#F2F2F2"/>
<path d="M68.5375 130.885C80.4475 130.885 90.1024 121.23 90.1024 109.32C90.1024 97.4098 80.4475 87.7549 68.5375 87.7549C56.6276 87.7549 46.9727 97.4098 46.9727 109.32C46.9727 121.23 56.6276 130.885 68.5375 130.885Z" fill="#557EBF"/>
</g>
<mask id="mask19_626_40" style="mask-type:luminance" maskUnits="userSpaceOnUse" x="0" y="0" width="138" height="119">
<path d="M0 0V109.105C0 114.23 4.27027 118.5 9.3946 118.5H127.895C133.019 118.5 137.289 114.23 137.289 109.105V0H0ZM84.1243 24.9811H52.9514C49.5351 24.9811 46.7595 22.2054 46.7595 18.7892C46.7595 15.373 49.5351 12.5973 52.9514 12.5973H84.1243C87.5405 12.5973 90.3162 15.373 90.3162 18.7892C90.3162 22.2054 87.5405 24.9811 84.1243 24.9811Z" fill="white"/>
</mask>
<g mask="url(#mask19_626_40)">
<path d="M0 0H137.289V59.3568H0V0Z" fill="#212121" fill-opacity="0.05"/>
</g>
<path d="M0 58.5039H137.289V59.358H0V58.5039Z" fill="#212121" fill-opacity="0.02"/>
<path d="M0 59.3564H137.289V60.2105H0V59.3564Z" fill="white" fill-opacity="0.05"/>
<path d="M84.1243 24.9811H52.9514C49.7487 24.9811 46.973 22.4189 46.7595 19.2162C46.7595 19.4297 46.7595 19.4297 46.7595 19.6433C46.7595 23.0595 49.5351 25.8351 52.9514 25.8351H84.1243C87.5405 25.8351 90.3162 23.0595 90.3162 19.6433C90.3162 19.4297 90.3162 19.4297 90.3162 19.2162C90.1027 22.4189 87.5405 24.9811 84.1243 24.9811ZM0 0V0.854057H137.289V0H0Z" fill="#212121" fill-opacity="0.02"/>
<path d="M52.9514 12.5972H84.1243C87.327 12.5972 90.1027 15.1594 90.3162 18.3621C90.3162 18.1486 90.3162 18.1486 90.3162 17.9351C90.3162 14.5188 87.5405 11.7432 84.1243 11.7432H52.9514C49.5351 11.7432 46.7595 14.5188 46.7595 17.9351C46.7595 18.1486 46.7595 18.1486 46.7595 18.3621C46.973 15.1594 49.7487 12.5972 52.9514 12.5972ZM127.895 117.859H9.3946C4.27027 117.859 0 113.589 0 108.465V109.319C0 114.443 4.27027 118.713 9.3946 118.713H127.895C133.019 118.713 137.289 114.443 137.289 109.319V108.465C137.289 113.589 133.019 117.859 127.895 117.859Z" fill="#231F20" fill-opacity="0.1"/>
<path d="M0 0V109.105C0 114.23 4.27027 118.5 9.3946 118.5H127.895C133.019 118.5 137.289 114.23 137.289 109.105V0H0ZM84.1243 24.9811H52.9514C49.5351 24.9811 46.7595 22.2054 46.7595 18.7892C46.7595 15.373 49.5351 12.5973 52.9514 12.5973H84.1243C87.5405 12.5973 90.3162 15.373 90.3162 18.7892C90.3162 22.2054 87.5405 24.9811 84.1243 24.9811Z" fill="url(#paint0_radial_626_40)"/>
</g>
<defs>
<radialGradient id="paint0_radial_626_40" cx="0" cy="0" r="1" gradientUnits="userSpaceOnUse" gradientTransform="translate(-0.413425 -0.409364) scale(177.449 177.449)">
<stop stop-color="white" stop-opacity="0.1"/>
<stop offset="1" stop-color="white" stop-opacity="0"/>
</radialGradient>
</defs>
</svg>
