<svg width="217" height="217" viewBox="0 0 217 217" fill="none" xmlns="http://www.w3.org/2000/svg">
<circle cx="108.5" cy="108.5" r="108.5" fill="white"/>
<mask id="mask0_613_68" style="mask-type:alpha" maskUnits="userSpaceOnUse" x="62" y="41" width="107" height="148">
<path d="M121.407 148.856C111.476 148.856 103.381 146.55 97.1233 141.937C91.0012 137.189 87.1919 130.677 85.6954 122.401L87.7361 122.197V188.539H62.0234V43.035H87.1239V66.4378L85.0832 66.0308C86.9878 58.2977 91.3413 52.1926 98.1436 47.7156C104.946 43.2385 113.245 41 123.04 41C132.291 41 140.318 43.2385 147.12 47.7156C154.058 52.057 159.432 58.2299 163.242 66.2343C167.051 74.2387 168.955 83.6676 168.955 94.5211C168.955 105.51 166.983 115.075 163.037 123.215C159.092 131.355 153.582 137.664 146.508 142.141C139.433 146.618 131.067 148.856 121.407 148.856ZM114.877 127.692C123.176 127.692 129.774 124.843 134.672 119.145C139.57 113.311 142.018 105.171 142.018 94.7246C142.018 84.2781 139.502 76.2059 134.468 70.5078C129.57 64.8098 122.972 61.9607 114.673 61.9607C106.51 61.9607 99.9122 64.8776 94.8785 70.7113C89.8448 76.4094 87.328 84.4816 87.328 94.9281C87.328 105.375 89.8448 113.447 94.8785 119.145C99.9122 124.843 106.578 127.692 114.877 127.692Z" fill="black"/>
</mask>
<g mask="url(#mask0_613_68)">
<rect x="87.0391" y="39.2402" width="25.7178" height="62.2642" fill="#0DA30D"/>
<rect x="114.789" y="35.8564" width="25.7178" height="64.2945" fill="#0DA30D"/>
<rect x="142.539" y="32.4727" width="25.7178" height="46.0214" fill="#51D071"/>
<rect x="137.801" y="79.8477" width="35.8696" height="30.4553" fill="#0DA30D"/>
<rect x="142.539" y="111.657" width="26.3946" height="36.5464" fill="#51D071"/>
<rect x="115.469" y="93.3838" width="25.041" height="63.6178" fill="#0DA30D"/>
<rect x="87.0391" y="93.3838" width="26.3946" height="61.5874" fill="#0DA30D"/>
</g>
<rect x="62" y="129.552" width="25.659" height="28.51" fill="#005F16"/>
<rect x="62" y="101.505" width="25.041" height="27.0714" fill="#005F16"/>
<rect x="62" y="72.4033" width="25.041" height="27.0714" fill="#005F16"/>
<rect x="62" y="43.3008" width="25.041" height="27.0714" fill="#005F16"/>
<rect x="62" y="159.708" width="25.7178" height="27.0714" fill="#005F16"/>
</svg> 